<svg xmlns="http://www.w3.org/2000/svg" version="1.1" xmlns:xlink="http://www.w3.org/1999/xlink" xmlns:svgjs="http://svgjs.dev/svgjs" viewBox="0 0 1422 800"><circle r="14.5" cx="282" cy="22" fill="hsl(174, 50%, 50%)"></circle><circle r="9.5" cx="806" cy="306" fill="hsl(172, 50%, 50%)"></circle><circle r="9.5" cx="897" cy="657" fill="hsl(172, 50%, 50%)"></circle><circle r="12" cx="286" cy="645" fill="hsl(173, 50%, 50%)"></circle><circle r="8.5" cx="521" cy="552" fill="hsl(172, 50%, 50%)"></circle><circle r="11" cx="246" cy="474" stroke-width="2" stroke="hsl(173, 50%, 50%)" fill="none"></circle><circle r="11" cx="223" cy="261" stroke-width="2" stroke="hsl(173, 50%, 50%)" fill="none"></circle><circle r="9.5" cx="1349" cy="546" fill="hsl(172, 50%, 50%)"></circle><circle r="10.5" cx="128" cy="502" stroke-width="2" stroke="hsl(173, 50%, 50%)" fill="none"></circle><circle r="8.5" cx="608" cy="733" fill="hsl(172, 50%, 50%)"></circle><circle r="9" cx="698" cy="402" stroke-width="2" stroke="hsl(172, 50%, 50%)" fill="none"></circle><circle r="11.5" cx="1225" cy="722" stroke-width="2" stroke="hsl(173, 50%, 50%)" fill="none"></circle><circle r="8.5" cx="896" cy="80" fill="hsl(172, 50%, 50%)"></circle><circle r="13" cx="407" cy="68" stroke-width="2" stroke="hsl(173, 50%, 50%)" fill="none"></circle><circle r="10.5" cx="128" cy="454" stroke-width="2" stroke="hsl(173, 50%, 50%)" fill="none"></circle><circle r="6.5" cx="1401" cy="213" stroke-width="2" stroke="hsl(171, 50%, 50%)" fill="none"></circle><circle r="10.5" cx="1253" cy="343" fill="hsl(173, 50%, 50%)"></circle><circle r="9" cx="805" cy="655" fill="hsl(172, 50%, 50%)"></circle><circle r="10.5" cx="344" cy="302" fill="hsl(173, 50%, 50%)"></circle><circle r="12" cx="1165" cy="545" fill="hsl(173, 50%, 50%)"></circle><circle r="10" cx="112" cy="311" stroke-width="2" stroke="hsl(173, 50%, 50%)" fill="none"></circle><circle r="13" cx="1120" cy="170" fill="hsl(173, 50%, 50%)"></circle><circle r="8" cx="52" cy="578" stroke-width="2" stroke="hsl(172, 50%, 50%)" fill="none"></circle><circle r="11" cx="1275" cy="724" stroke-width="2" stroke="hsl(172, 50%, 50%)" fill="none"></circle><circle r="8.5" cx="720" cy="117" stroke-width="2" stroke="hsl(172, 50%, 50%)" fill="none"></circle><circle r="9" cx="1348" cy="341" fill="hsl(172, 50%, 50%)"></circle><circle r="11" cx="166" cy="229" fill="hsl(173, 50%, 50%)"></circle><circle r="8.5" cx="24" cy="361" stroke-width="2" stroke="hsl(172, 50%, 50%)" fill="none"></circle><circle r="10.5" cx="387" cy="632" fill="hsl(173, 50%, 50%)"></circle><circle r="8" cx="1398" cy="418" stroke-width="2" stroke="hsl(172, 50%, 50%)" fill="none"></circle><circle r="10" cx="831" cy="441" stroke-width="2" stroke="hsl(172, 50%, 50%)" fill="none"></circle><circle r="10" cx="943" cy="156" fill="hsl(172, 50%, 50%)"></circle><circle r="10" cx="1300" cy="23" fill="hsl(172, 50%, 50%)"></circle><circle r="8" cx="24" cy="315" stroke-width="2" stroke="hsl(172, 50%, 50%)" fill="none"></circle><circle r="12.5" cx="1066" cy="328" fill="hsl(173, 50%, 50%)"></circle><circle r="12" cx="1203" cy="356" fill="hsl(173, 50%, 50%)"></circle><circle r="10.5" cx="880" cy="444" fill="hsl(172, 50%, 50%)"></circle><circle r="7.5" cx="19" cy="229" fill="hsl(172, 50%, 50%)"></circle><circle r="11.5" cx="1215" cy="629" fill="hsl(173, 50%, 50%)"></circle><circle r="12" cx="176" cy="530" fill="hsl(173, 50%, 50%)"></circle><circle r="12" cx="272" cy="692" fill="hsl(173, 50%, 50%)"></circle><circle r="9" cx="593" cy="497" stroke-width="2" stroke="hsl(172, 50%, 50%)" fill="none"></circle><circle r="10.5" cx="1301" cy="574" stroke-width="2" stroke="hsl(172, 50%, 50%)" fill="none"></circle><circle r="10" cx="1033" cy="112" stroke-width="2" stroke="hsl(173, 50%, 50%)" fill="none"></circle><circle r="10" cx="1298" cy="362" stroke-width="2" stroke="hsl(172, 50%, 50%)" fill="none"></circle><circle r="11.5" cx="199" cy="138" stroke-width="2" stroke="hsl(173, 50%, 50%)" fill="none"></circle><circle r="10" cx="133" cy="272" stroke-width="2" stroke="hsl(173, 50%, 50%)" fill="none"></circle><circle r="8.5" cx="633" cy="229" stroke-width="2" stroke="hsl(172, 50%, 50%)" fill="none"></circle><circle r="13" cx="1151" cy="215" stroke-width="2" stroke="hsl(173, 50%, 50%)" fill="none"></circle><circle r="10" cx="427" cy="776" fill="hsl(172, 50%, 50%)"></circle><circle r="12.5" cx="1205" cy="507" fill="hsl(173, 50%, 50%)"></circle><circle r="8.5" cx="581" cy="553" fill="hsl(172, 50%, 50%)"></circle><circle r="13" cx="155" cy="61" stroke-width="2" stroke="hsl(174, 50%, 50%)" fill="none"></circle><circle r="11.5" cx="1225" cy="160" stroke-width="2" stroke="hsl(173, 50%, 50%)" fill="none"></circle><circle r="10" cx="858" cy="183" stroke-width="2" stroke="hsl(172, 50%, 50%)" fill="none"></circle><circle r="11.5" cx="267" cy="243" fill="hsl(173, 50%, 50%)"></circle><circle r="11" cx="911" cy="194" stroke-width="2" stroke="hsl(173, 50%, 50%)" fill="none"></circle><circle r="11" cx="395" cy="277" stroke-width="2" stroke="hsl(173, 50%, 50%)" fill="none"></circle><circle r="11" cx="965" cy="410" fill="hsl(173, 50%, 50%)"></circle><circle r="9.5" cx="821" cy="219" fill="hsl(172, 50%, 50%)"></circle><circle r="12" cx="410" cy="167" stroke-width="2" stroke="hsl(173, 50%, 50%)" fill="none"></circle><circle r="11.5" cx="1116" cy="74" stroke-width="2" stroke="hsl(173, 50%, 50%)" fill="none"></circle><circle r="11.5" cx="431" cy="22" fill="hsl(173, 50%, 50%)"></circle><circle r="8" cx="578" cy="292" stroke-width="2" stroke="hsl(172, 50%, 50%)" fill="none"></circle><circle r="9" cx="490" cy="453" stroke-width="2" stroke="hsl(172, 50%, 50%)" fill="none"></circle><circle r="8" cx="583" cy="687" stroke-width="2" stroke="hsl(172, 50%, 50%)" fill="none"></circle><circle r="9.5" cx="76" cy="280" fill="hsl(172, 50%, 50%)"></circle><circle r="9.5" cx="837" cy="266" fill="hsl(172, 50%, 50%)"></circle><circle r="9" cx="556" cy="161" stroke-width="2" stroke="hsl(172, 50%, 50%)" fill="none"></circle><circle r="10" cx="911" cy="737" fill="hsl(173, 50%, 50%)"></circle><circle r="8.5" cx="586" cy="243" fill="hsl(172, 50%, 50%)"></circle><circle r="9.5" cx="993" cy="24" stroke-width="2" stroke="hsl(172, 50%, 50%)" fill="none"></circle><circle r="11.5" cx="1121" cy="454" fill="hsl(173, 50%, 50%)"></circle><circle r="11" cx="936" cy="689" fill="hsl(173, 50%, 50%)"></circle><circle r="10" cx="888" cy="140" stroke-width="2" stroke="hsl(172, 50%, 50%)" fill="none"></circle><circle r="9" cx="462" cy="362" fill="hsl(172, 50%, 50%)"></circle><circle r="10" cx="1009" cy="68" stroke-width="2" stroke="hsl(172, 50%, 50%)" fill="none"></circle><circle r="11.5" cx="1196" cy="117" fill="hsl(173, 50%, 50%)"></circle><circle r="11.5" cx="1172" cy="457" fill="hsl(173, 50%, 50%)"></circle><circle r="8" cx="798" cy="173" fill="hsl(172, 50%, 50%)"></circle><circle r="9" cx="471" cy="644" fill="hsl(172, 50%, 50%)"></circle><circle r="8.5" cx="482" cy="323" fill="hsl(172, 50%, 50%)"></circle><circle r="11" cx="1065" cy="73" stroke-width="2" stroke="hsl(172, 50%, 50%)" fill="none"></circle><circle r="8.5" cx="650" cy="424" stroke-width="2" stroke="hsl(172, 50%, 50%)" fill="none"></circle><circle r="9" cx="1347" cy="598" stroke-width="2" stroke="hsl(172, 50%, 50%)" fill="none"></circle><circle r="12" cx="1020" cy="199" stroke-width="2" stroke="hsl(173, 50%, 50%)" fill="none"></circle><circle r="11" cx="1075" cy="189" stroke-width="2" stroke="hsl(173, 50%, 50%)" fill="none"></circle><circle r="9.5" cx="866" cy="581" fill="hsl(172, 50%, 50%)"></circle><circle r="9" cx="783" cy="260" fill="hsl(172, 50%, 50%)"></circle><circle r="9.5" cx="66" cy="775" stroke-width="2" stroke="hsl(172, 50%, 50%)" fill="none"></circle><circle r="9.5" cx="81" cy="191" fill="hsl(172, 50%, 50%)"></circle><circle r="8.5" cx="748" cy="74" stroke-width="2" stroke="hsl(172, 50%, 50%)" fill="none"></circle><circle r="11.5" cx="223" cy="393" stroke-width="2" stroke="hsl(173, 50%, 50%)" fill="none"></circle><circle r="9" cx="524" cy="414" fill="hsl(172, 50%, 50%)"></circle><circle r="8" cx="1394" cy="728" fill="hsl(172, 50%, 50%)"></circle><circle r="9" cx="560" cy="110" fill="hsl(172, 50%, 50%)"></circle><circle r="12" cx="352" cy="730" stroke-width="2" stroke="hsl(173, 50%, 50%)" fill="none"></circle><circle r="6.5" cx="1401" cy="268" fill="hsl(171, 50%, 50%)"></circle><circle r="13" cx="1109" cy="632" stroke-width="2" stroke="hsl(173, 50%, 50%)" fill="none"></circle><circle r="8" cx="22" cy="773" fill="hsl(172, 50%, 50%)"></circle><circle r="10.5" cx="905" cy="488" fill="hsl(172, 50%, 50%)"></circle><circle r="10.5" cx="362" cy="200" fill="hsl(173, 50%, 50%)"></circle><circle r="9.5" cx="903" cy="613" fill="hsl(172, 50%, 50%)"></circle><circle r="9" cx="478" cy="777" fill="hsl(172, 50%, 50%)"></circle><circle r="9" cx="613" cy="337" fill="hsl(172, 50%, 50%)"></circle><circle r="12" cx="267" cy="423" fill="hsl(173, 50%, 50%)"></circle><circle r="11" cx="378" cy="776" fill="hsl(173, 50%, 50%)"></circle><circle r="8" cx="1398" cy="520" stroke-width="2" stroke="hsl(172, 50%, 50%)" fill="none"></circle><circle r="11" cx="373" cy="383" fill="hsl(173, 50%, 50%)"></circle><circle r="10" cx="77" cy="480" fill="hsl(172, 50%, 50%)"></circle><circle r="9" cx="731" cy="440" fill="hsl(172, 50%, 50%)"></circle><circle r="11.5" cx="178" cy="681" fill="hsl(173, 50%, 50%)"></circle><circle r="10" cx="892" cy="273" fill="hsl(172, 50%, 50%)"></circle><circle r="11" cx="356" cy="250" fill="hsl(173, 50%, 50%)"></circle><circle r="8" cx="712" cy="694" fill="hsl(172, 50%, 50%)"></circle><circle r="11" cx="1228" cy="253" fill="hsl(173, 50%, 50%)"></circle><circle r="8.5" cx="631" cy="584" fill="hsl(172, 50%, 50%)"></circle><circle r="7.5" cx="764" cy="25" fill="hsl(172, 50%, 50%)"></circle><circle r="8" cx="649" cy="69" fill="hsl(172, 50%, 50%)"></circle><circle r="10.5" cx="970" cy="331" stroke-width="2" stroke="hsl(173, 50%, 50%)" fill="none"></circle><circle r="9.5" cx="27" cy="721" stroke-width="2" stroke="hsl(172, 50%, 50%)" fill="none"></circle><circle r="9" cx="722" cy="594" fill="hsl(172, 50%, 50%)"></circle><circle r="9" cx="433" cy="620" stroke-width="2" stroke="hsl(172, 50%, 50%)" fill="none"></circle><circle r="12" cx="325" cy="410" stroke-width="2" stroke="hsl(173, 50%, 50%)" fill="none"></circle><circle r="8.5" cx="1353" cy="197" stroke-width="2" stroke="hsl(172, 50%, 50%)" fill="none"></circle><circle r="8" cx="946" cy="21" fill="hsl(172, 50%, 50%)"></circle><circle r="10.5" cx="922" cy="309" stroke-width="2" stroke="hsl(173, 50%, 50%)" fill="none"></circle><circle r="11" cx="171" cy="425" stroke-width="2" stroke="hsl(173, 50%, 50%)" fill="none"></circle><circle r="10" cx="71" cy="382" stroke-width="2" stroke="hsl(172, 50%, 50%)" fill="none"></circle><circle r="11.5" cx="338" cy="638" stroke-width="2" stroke="hsl(173, 50%, 50%)" fill="none"></circle><circle r="13" cx="1079" cy="425" stroke-width="2" stroke="hsl(173, 50%, 50%)" fill="none"></circle><circle r="12.5" cx="1010" cy="505" fill="hsl(173, 50%, 50%)"></circle><circle r="12" cx="963" cy="733" stroke-width="2" stroke="hsl(173, 50%, 50%)" fill="none"></circle><circle r="8.5" cx="696" cy="74" stroke-width="2" stroke="hsl(172, 50%, 50%)" fill="none"></circle><circle r="9" cx="473" cy="537" stroke-width="2" stroke="hsl(172, 50%, 50%)" fill="none"></circle><circle r="11" cx="78" cy="105" fill="hsl(173, 50%, 50%)"></circle><circle r="13.5" cx="329" cy="117" fill="hsl(173, 50%, 50%)"></circle><circle r="11.5" cx="382" cy="113" stroke-width="2" stroke="hsl(173, 50%, 50%)" fill="none"></circle><circle r="8" cx="630" cy="689" stroke-width="2" stroke="hsl(172, 50%, 50%)" fill="none"></circle><circle r="7.5" cx="1399" cy="674" fill="hsl(172, 50%, 50%)"></circle><circle r="12.5" cx="264" cy="556" stroke-width="2" stroke="hsl(173, 50%, 50%)" fill="none"></circle><circle r="14.5" cx="231" cy="22" stroke-width="2" stroke="hsl(174, 50%, 50%)" fill="none"></circle><circle r="10" cx="443" cy="252" stroke-width="2" stroke="hsl(172, 50%, 50%)" fill="none"></circle><circle r="9.5" cx="853" cy="734" stroke-width="2" stroke="hsl(172, 50%, 50%)" fill="none"></circle><circle r="10.5" cx="1306" cy="467" stroke-width="2" stroke="hsl(172, 50%, 50%)" fill="none"></circle><circle r="12" cx="225" cy="517" stroke-width="2" stroke="hsl(173, 50%, 50%)" fill="none"></circle><circle r="11" cx="1255" cy="602" fill="hsl(173, 50%, 50%)"></circle><circle r="8.5" cx="661" cy="369" stroke-width="2" stroke="hsl(172, 50%, 50%)" fill="none"></circle><circle r="11.5" cx="1213" cy="304" stroke-width="2" stroke="hsl(173, 50%, 50%)" fill="none"></circle><circle r="9" cx="626" cy="283" fill="hsl(172, 50%, 50%)"></circle><circle r="12.5" cx="1116" cy="323" fill="hsl(173, 50%, 50%)"></circle><circle r="10.5" cx="398" cy="579" stroke-width="2" stroke="hsl(173, 50%, 50%)" fill="none"></circle><circle r="12.5" cx="1051" cy="237" fill="hsl(173, 50%, 50%)"></circle><circle r="8" cx="581" cy="777" fill="hsl(172, 50%, 50%)"></circle><circle r="11.5" cx="985" cy="686" fill="hsl(173, 50%, 50%)"></circle><circle r="7.5" cx="565" cy="378" stroke-width="2" stroke="hsl(172, 50%, 50%)" fill="none"></circle><circle r="12" cx="1201" cy="209" stroke-width="2" stroke="hsl(173, 50%, 50%)" fill="none"></circle><circle r="12.5" cx="1129" cy="586" fill="hsl(173, 50%, 50%)"></circle><circle r="9" cx="1354" cy="292" stroke-width="2" stroke="hsl(172, 50%, 50%)" fill="none"></circle><circle r="10.5" cx="1264" cy="441" stroke-width="2" stroke="hsl(173, 50%, 50%)" fill="none"></circle><circle r="10" cx="451" cy="729" fill="hsl(172, 50%, 50%)"></circle><circle r="11.5" cx="1178" cy="594" fill="hsl(173, 50%, 50%)"></circle><circle r="9.5" cx="815" cy="598" stroke-width="2" stroke="hsl(172, 50%, 50%)" fill="none"></circle><circle r="8" cx="1398" cy="319" stroke-width="2" stroke="hsl(172, 50%, 50%)" fill="none"></circle><circle r="11" cx="1256" cy="492" fill="hsl(173, 50%, 50%)"></circle><circle r="10.5" cx="1304" cy="681" stroke-width="2" stroke="hsl(172, 50%, 50%)" fill="none"></circle><circle r="6.5" cx="858" cy="19" stroke-width="2" stroke="hsl(172, 50%, 50%)" fill="none"></circle><circle r="9" cx="756" cy="729" fill="hsl(172, 50%, 50%)"></circle><circle r="8" cx="575" cy="20" stroke-width="2" stroke="hsl(172, 50%, 50%)" fill="none"></circle><circle r="9" cx="715" cy="350" stroke-width="2" stroke="hsl(172, 50%, 50%)" fill="none"></circle><circle r="10.5" cx="938" cy="364" fill="hsl(173, 50%, 50%)"></circle><circle r="10" cx="1247" cy="23" stroke-width="2" stroke="hsl(172, 50%, 50%)" fill="none"></circle><circle r="9" cx="535" cy="259" fill="hsl(172, 50%, 50%)"></circle><circle r="11" cx="482" cy="24" stroke-width="2" stroke="hsl(173, 50%, 50%)" fill="none"></circle><circle r="9.5" cx="843" cy="683" fill="hsl(172, 50%, 50%)"></circle><circle r="9" cx="596" cy="192" stroke-width="2" stroke="hsl(172, 50%, 50%)" fill="none"></circle><circle r="11.5" cx="426" cy="676" stroke-width="2" stroke="hsl(172, 50%, 50%)" fill="none"></circle><circle r="8.5" cx="1334" cy="155" fill="hsl(172, 50%, 50%)"></circle><circle r="11.5" cx="1017" cy="329" stroke-width="2" stroke="hsl(173, 50%, 50%)" fill="none"></circle><circle r="9" cx="645" cy="174" stroke-width="2" stroke="hsl(172, 50%, 50%)" fill="none"></circle><circle r="12.5" cx="1197" cy="678" stroke-width="2" stroke="hsl(173, 50%, 50%)" fill="none"></circle><circle r="12" cx="1198" cy="774" fill="hsl(173, 50%, 50%)"></circle><circle r="11" cx="222" cy="698" fill="hsl(173, 50%, 50%)"></circle><circle r="8.5" cx="526" cy="307" stroke-width="2" stroke="hsl(172, 50%, 50%)" fill="none"></circle><circle r="11" cx="1249" cy="114" fill="hsl(172, 50%, 50%)"></circle><circle r="13" cx="1082" cy="279" fill="hsl(173, 50%, 50%)"></circle><circle r="9.5" cx="1351" cy="494" fill="hsl(172, 50%, 50%)"></circle><circle r="8" cx="1397" cy="368" stroke-width="2" stroke="hsl(172, 50%, 50%)" fill="none"></circle><circle r="9" cx="660" cy="120" fill="hsl(172, 50%, 50%)"></circle><circle r="9.5" cx="60" cy="148" stroke-width="2" stroke="hsl(172, 50%, 50%)" fill="none"></circle><circle r="11.5" cx="297" cy="326" fill="hsl(173, 50%, 50%)"></circle><circle r="9" cx="930" cy="111" stroke-width="2" stroke="hsl(172, 50%, 50%)" fill="none"></circle><circle r="10.5" cx="1303" cy="520" fill="hsl(172, 50%, 50%)"></circle><circle r="10.5" cx="1298" cy="629" stroke-width="2" stroke="hsl(172, 50%, 50%)" fill="none"></circle><circle r="8.5" cx="26" cy="503" fill="hsl(172, 50%, 50%)"></circle><circle r="8" cx="20" cy="611" fill="hsl(172, 50%, 50%)"></circle><circle r="13.5" cx="1100" cy="374" stroke-width="2" stroke="hsl(173, 50%, 50%)" fill="none"></circle><circle r="7.5" cx="830" cy="142" fill="hsl(172, 50%, 50%)"></circle><circle r="8.5" cx="674" cy="264" stroke-width="2" stroke="hsl(172, 50%, 50%)" fill="none"></circle><circle r="9.5" cx="1299" cy="776" stroke-width="2" stroke="hsl(172, 50%, 50%)" fill="none"></circle><circle r="8.5" cx="686" cy="459" fill="hsl(172, 50%, 50%)"></circle><circle r="10.5" cx="1260" cy="294" stroke-width="2" stroke="hsl(173, 50%, 50%)" fill="none"></circle><circle r="7.5" cx="1394" cy="163" fill="hsl(172, 50%, 50%)"></circle><circle r="12" cx="323" cy="686" stroke-width="2" stroke="hsl(173, 50%, 50%)" fill="none"></circle><circle r="12" cx="1142" cy="682" fill="hsl(173, 50%, 50%)"></circle><circle r="10" cx="1305" cy="203" stroke-width="2" stroke="hsl(172, 50%, 50%)" fill="none"></circle><circle r="11" cx="219" cy="778" fill="hsl(173, 50%, 50%)"></circle><circle r="8" cx="717" cy="25" stroke-width="2" stroke="hsl(172, 50%, 50%)" fill="none"></circle></svg>